<svg width="24" height="24" viewBox="0 0 24 24" fill="none" xmlns="http://www.w3.org/2000/svg">
<path d="M23.1704 16.9981L19.0907 2.62093C18.8526 1.78018 18.1296 1.2023 17.2967 1.08718C17.7743 1.34327 18.1355 1.77276 18.3059 2.28718L22.975 16.4877C23.3444 17.6127 22.7065 18.8262 21.5496 19.1986L11.8952 22.2409L21.4607 18.7981C22.6037 18.3863 23.1989 17.1514 22.7897 16.0403L17.6256 2.00855C17.3065 1.14268 16.4725 0.607178 15.5789 0.607178C15.3254 0.607178 15.0674 0.649928 14.8146 0.741053L4.981 4.2803L3.42887 4.83943C2.4265 5.20018 2.281 5.74505 2.536 6.62293C1.48262 6.93268 0.524872 7.67968 0.796747 8.48593C1.123 9.45268 2.26712 9.4883 3.4375 9.11105L4.17925 11.1256C3.13375 11.4387 2.18912 12.1808 2.4595 12.9822C2.78612 13.9504 3.91825 13.9793 5.09012 13.6006L4.99112 13.3317L5.69912 15.2547C4.65887 15.5701 3.7225 16.3096 3.99137 17.1076C4.318 18.0758 5.44262 18.1208 6.6145 17.7421L6.376 17.0944C6.376 17.0944 5.01287 17.5302 4.7845 16.8889C4.65962 16.5379 5.30237 16.1971 5.9755 16.0047L7.26962 19.5218C6.22562 19.8353 5.2825 20.5771 5.55287 21.3777C5.8795 22.3459 7.01462 22.3913 8.1865 22.0126L8.20037 22.0508C8.47562 22.7963 8.71037 23.1072 9.17987 23.1072C9.4105 23.1072 9.6985 23.0318 10.0754 22.8961L11.5364 22.3703L21.6355 19.6486C22.8059 19.3234 23.4936 18.1369 23.1704 16.9981ZM1.58987 8.2673C1.46387 7.9133 2.12012 7.56905 2.8 7.3778L3.19675 8.45518C3.17762 8.46118 1.81712 8.90405 1.58987 8.2673ZM3.25262 12.7636C3.127 12.4111 3.77837 12.0676 4.456 11.8759L4.85087 12.9484C4.84825 12.9492 3.481 13.4041 3.25262 12.7636ZM6.34637 21.1598C6.22075 20.8077 6.86987 20.4646 7.54637 20.2729L7.948 21.3642C7.94575 21.3649 6.574 21.8007 6.34637 21.1598ZM9.82075 22.1907C9.514 22.3013 9.29837 22.3572 9.17987 22.3572H9.17425C9.13937 22.3174 9.0505 22.1877 8.90462 21.7917L8.29225 20.1278C8.323 20.1252 8.35562 20.1207 8.3845 20.1192C8.38037 20.2208 8.39462 20.3251 8.43212 20.4263C8.58587 20.8441 9.05237 21.0593 9.47462 20.9071C9.89687 20.7548 10.1144 20.2936 9.96137 19.8762C9.88604 19.6749 9.73429 19.5115 9.53914 19.4216C9.34398 19.3316 9.1212 19.3224 8.91925 19.3958C8.88887 19.4067 8.86187 19.4224 8.83337 19.4363C8.59112 19.3681 8.31025 19.3504 8.01512 19.3759L6.72062 15.8584C6.75475 15.8551 6.79075 15.8506 6.82262 15.8487C6.8185 15.9503 6.83275 16.0546 6.87025 16.1562C6.94574 16.3575 7.09762 16.5209 7.2929 16.6108C7.48818 16.7008 7.71107 16.71 7.91312 16.6366C8.01307 16.6012 8.10502 16.5464 8.18366 16.4753C8.2623 16.4042 8.32608 16.3182 8.3713 16.2223C8.41652 16.1264 8.4423 16.0225 8.44714 15.9166C8.45198 15.8107 8.43579 15.7049 8.3995 15.6053C8.32409 15.4041 8.17233 15.2408 7.9772 15.1509C7.78207 15.0609 7.55933 15.0516 7.35737 15.1249C7.327 15.1358 7.30037 15.1519 7.2715 15.1658C7.027 15.0968 6.74237 15.0799 6.4435 15.1066L5.20112 11.7316C5.23075 11.7289 5.26225 11.7244 5.29037 11.7229C5.287 11.8227 5.30087 11.9247 5.33762 12.0244C5.41312 12.2257 5.56499 12.3891 5.76024 12.4792C5.9555 12.5692 6.17839 12.5785 6.3805 12.5052C6.48044 12.4698 6.57239 12.415 6.65104 12.3439C6.72968 12.2728 6.79345 12.1868 6.83868 12.091C6.8839 11.9951 6.90967 11.8912 6.91451 11.7853C6.91935 11.6794 6.90316 11.5735 6.86687 11.4739C6.79154 11.2727 6.63979 11.1093 6.44464 11.0193C6.24948 10.9294 6.0267 10.9201 5.82475 10.9936C5.79137 11.0056 5.76175 11.0224 5.73137 11.0382C5.49137 10.9722 5.215 10.9549 4.92475 10.9801L3.54587 7.23455C3.57325 7.2323 3.6025 7.22818 3.62912 7.22668C3.62762 7.3208 3.64075 7.41643 3.67525 7.51018C3.75074 7.71149 3.90261 7.8749 4.09787 7.96491C4.29313 8.05492 4.51601 8.06427 4.71812 7.99093C4.8181 7.95561 4.91008 7.90083 4.98875 7.82974C5.06742 7.75865 5.13121 7.67267 5.17644 7.57677C5.22167 7.48087 5.24744 7.37695 5.25226 7.27103C5.25707 7.16511 5.24084 7.05929 5.2045 6.95968C5.12917 6.75842 4.97742 6.59505 4.78226 6.50509C4.58711 6.41513 4.36433 6.40586 4.16237 6.4793C4.12075 6.4943 4.08287 6.51455 4.045 6.53518C3.8155 6.47555 3.55262 6.45943 3.27737 6.48155C3.14912 6.06568 3.1675 5.90105 3.196 5.83993C3.21212 5.8058 3.29387 5.6843 3.68237 5.54443L5.2345 4.9853L15.0677 1.44605C15.2318 1.38748 15.4047 1.35742 15.5789 1.35718C16.1811 1.35718 16.7211 1.72318 16.9217 2.26768L22.0859 16.2994C22.2107 16.6384 22.1939 17.0082 22.0394 17.3401C21.9575 17.5145 21.8417 17.6709 21.6987 17.8002C21.5557 17.9294 21.3883 18.0288 21.2065 18.0927L11.3732 21.6319L9.82075 22.1907Z" fill="currentColor"/>
</svg>
